<svg width="24" height="24" viewBox="0 0 24 24" fill="none" xmlns="http://www.w3.org/2000/svg">
<path d="M19.734 16.06C18.888 17.7705 17.5158 19.1648 15.819 20.038C14.1344 20.903 12.2136 21.1951 10.348 20.87C8.47659 20.541 6.76206 19.6148 5.461 18.23C4.14787 16.8322 3.31181 15.054 3.073 13.151C2.83045 11.2437 3.19579 9.30857 4.117 7.62101C5.02975 5.94637 6.45609 4.60907 8.186 3.80601C9.90431 3.01017 11.8354 2.7967 13.686 3.19801C15.536 3.59901 17.052 4.51101 18.306 5.95301C18.457 6.11301 19.041 6.75901 19.526 7.73401" stroke="white" stroke-width="2" stroke-linecap="round" stroke-linejoin="round"/>
<path d="M15.069 7.81301L20.109 8.72001L21 3.59001" stroke="white" stroke-width="2" stroke-linecap="round" stroke-linejoin="round"/>
</svg>
